# xmcd CD database file
#
# Track frame offsets:
#	150
#	22881
#	38829
#	65101
#	100335
#	128322
#	157284
#	192342
#	212208
#	231383
#	251451
#	276737
#
# Disc length: 4186 seconds
#
# Revision: 0
# Processed by: cddbd v1.5.1PL0 Copyright (c) Steve Scherf et al.
# Submitted via: CDex 1.51
#
DISCID=b310580c
DTITLE=YAMANO BIG BAND JAZZ CONTEST - THE 36th YAMANO BIG BAND JAZZ CONTEST Disc1
DYEAR=2005
DGENRE=Jazz
TTITLE0=LIKE THUNDER
TTITLE1=THE REUNION
TTITLE2=CROSSOVER
TTITLE3=Empty House
TTITLE4=E. Ticket
TTITLE5=Strike Up The Band
TTITLE6=Like The Rose
TTITLE7=Nica's Dream
TTITLE8=River Wide
TTITLE9=In Case You Missed It
TTITLE10=Tangos
TTITLE11=Groove from the Louvre
EXTD=YEAR: 2005
EXTT0=
EXTT1=
EXTT2=
EXTT3=
EXTT4=
EXTT5=
EXTT6=
EXTT7=
EXTT8=
EXTT9=
EXTT10=
EXTT11=
PLAYORDER=
